<?xml version="1.0" encoding="UTF-8" standalone="no" ?>
<!DOCTYPE svg PUBLIC "-//W3C//DTD SVG 1.1//EN" "http://www.w3.org/Graphics/SVG/1.1/DTD/svg11.dtd">
<svg xmlns="http://www.w3.org/2000/svg" xmlns:xlink="http://www.w3.org/1999/xlink" version="1.1" width="400" height="400" viewBox="0 0 400 400" xml:space="preserve">
<desc>Created with Fabric.js 3.6.2</desc>
<defs>
</defs>
<g transform="matrix(0.39 0 0 0.39 199.99 200)" id="Layer_1"  >
<linearGradient id="SVGID_SVGID_1__3" gradientUnits="userSpaceOnUse" gradientTransform="matrix(1 0 0 1 0 0)"  x1="43.09" y1="43.1122" x2="453.375" y2="453.3972">
<stop offset="0%" style="stop-color:rgb(81,127,166);stop-opacity: 1"/>
<stop offset="40.75%" style="stop-color:rgb(79,123,164);stop-opacity: 1"/>
<stop offset="78.29%" style="stop-color:rgb(72,112,158);stop-opacity: 1"/>
<stop offset="100%" style="stop-color:rgb(66,102,153);stop-opacity: 1"/>
</linearGradient>
<path style="stroke: none; stroke-width: 1; stroke-dasharray: none; stroke-linecap: butt; stroke-dashoffset: 0; stroke-linejoin: miter; stroke-miterlimit: 4; fill: url(#SVGID_SVGID_1__3); fill-rule: nonzero; opacity: 1;"  transform=" translate(-255.99, -256)" d="M 254.836 306.505 c 28.226 0.605 51.059 -21.95 51.655 -49.384 c 0.613 -28.275 -22.204 -51.647 -50.495 -51.631 c -27.654 -0.016 -50.135 22.236 -50.52 49.759 C 205.076 283.525 227.704 305.924 254.836 306.505 z" stroke-linecap="round" />
</g>
<g transform="matrix(0.39 0 0 0.39 200 214.48)" id="Layer_1"  >
<linearGradient id="SVGID_SVGID_2__4" gradientUnits="userSpaceOnUse" gradientTransform="matrix(1 0 0 1 0 0)"  x1="26.0369" y1="60.1652" x2="436.322" y2="470.4503">
<stop offset="0%" style="stop-color:rgb(81,127,166);stop-opacity: 1"/>
<stop offset="40.75%" style="stop-color:rgb(79,123,164);stop-opacity: 1"/>
<stop offset="78.29%" style="stop-color:rgb(72,112,158);stop-opacity: 1"/>
<stop offset="100%" style="stop-color:rgb(66,102,153);stop-opacity: 1"/>
</linearGradient>
<path style="stroke: none; stroke-width: 1; stroke-dasharray: none; stroke-linecap: butt; stroke-dashoffset: 0; stroke-linejoin: miter; stroke-miterlimit: 4; fill: url(#SVGID_SVGID_2__4); fill-rule: nonzero; opacity: 1;"  transform=" translate(-255.99, -293.07)" d="M 332.944 265.26 c -1.316 11.138 -4.911 21.5 -10.755 31.078 c -5.843 9.578 -13.435 17.529 -22.71 23.846 c -24.059 16.393 -55.742 17.831 -81.279 3.498 c -12.904 -7.232 -23.037 -17.325 -30.114 -30.343 c -10.534 -19.392 -12.217 -39.757 -6.039 -60.89 c -7.911 0 -15.772 0 -23.74 0 v 0.67 c 0 36.897 -0.008 73.794 0 110.69 c 0 5.304 4.593 9.872 9.904 9.872 c 58.512 0.008 117.016 0.008 175.528 0 c 5.361 0 9.929 -4.552 9.929 -9.904 c 0.008 -36.848 0 -73.712 0 -110.551 v -0.768 h -23.797 C 333.23 243.196 334.26 254.122 332.944 265.26 z" stroke-linecap="round" />
</g>
<g transform="matrix(0.39 0 0 0.39 229.6 167.77)" id="Layer_1"  >
<linearGradient id="SVGID_SVGID_3__5" gradientUnits="userSpaceOnUse" gradientTransform="matrix(1 0 0 1 0 0)"  x1="122.2536" y1="-36.0514" x2="532.5386" y2="374.2336">
<stop offset="0%" style="stop-color:rgb(81,127,166);stop-opacity: 1"/>
<stop offset="40.75%" style="stop-color:rgb(79,123,164);stop-opacity: 1"/>
<stop offset="78.29%" style="stop-color:rgb(72,112,158);stop-opacity: 1"/>
<stop offset="100%" style="stop-color:rgb(66,102,153);stop-opacity: 1"/>
</linearGradient>
<path style="stroke: none; stroke-width: 1; stroke-dasharray: none; stroke-linecap: butt; stroke-dashoffset: 0; stroke-linejoin: miter; stroke-miterlimit: 4; fill: url(#SVGID_SVGID_3__5); fill-rule: nonzero; opacity: 1;"  transform=" translate(-331.77, -173.48)" d="M 310.52 188.647 c 1.414 4.151 5.222 6.701 9.88 6.726 c 3.784 0 7.575 -0.008 11.359 -0.008 v -0.049 c 4.102 0 8.213 0.082 12.324 -0.016 c 5.279 -0.131 9.577 -4.658 9.577 -9.945 c 0 -7.87 0 -15.747 0 -23.617 c 0 -5.647 -4.47 -10.133 -10.101 -10.142 c -7.853 0 -15.707 -0.008 -23.56 0 c -5.623 0.008 -10.101 4.511 -10.101 10.158 c -0.008 7.804 -0.033 15.609 0.025 23.413 C 309.931 186.335 310.152 187.544 310.52 188.647 z" stroke-linecap="round" />
</g>
<g transform="matrix(0.39 0 0 0.39 200 200)" id="Layer_1"  >
<linearGradient id="SVGID_SVGID_4__6" gradientUnits="userSpaceOnUse" gradientTransform="matrix(1 0 0 1 0 0)"  x1="43.1011" y1="43.1011" x2="453.3861" y2="453.3861">
<stop offset="0%" style="stop-color:rgb(81,127,166);stop-opacity: 1"/>
<stop offset="40.75%" style="stop-color:rgb(79,123,164);stop-opacity: 1"/>
<stop offset="78.29%" style="stop-color:rgb(72,112,158);stop-opacity: 1"/>
<stop offset="100%" style="stop-color:rgb(66,102,153);stop-opacity: 1"/>
</linearGradient>
<path style="stroke: none; stroke-width: 1; stroke-dasharray: none; stroke-linecap: butt; stroke-dashoffset: 0; stroke-linejoin: miter; stroke-miterlimit: 4; fill: url(#SVGID_SVGID_4__6); fill-rule: nonzero; opacity: 1;"  transform=" translate(-256, -256)" d="M 256 7.098 C 118.535 7.098 7.098 118.535 7.098 256 S 118.535 504.902 256 504.902 c 137.465 0 248.902 -111.437 248.902 -248.902 S 393.465 7.098 256 7.098 z M 380.661 355.766 c -0.18 1.111 -0.343 2.223 -0.548 3.342 c -1.994 10.24 -10.313 18.73 -20.495 20.896 c -1.283 0.278 -2.582 0.466 -3.882 0.678 H 156.264 c -0.531 -0.073 -1.07 -0.18 -1.594 -0.245 c -10.975 -1.414 -20.193 -9.79 -22.637 -20.593 c -0.286 -1.259 -0.466 -2.542 -0.695 -3.8 V 156.008 c 0.074 -0.466 0.172 -0.932 0.237 -1.397 c 1.577 -11.196 9.749 -20.087 20.798 -22.604 c 1.185 -0.27 2.403 -0.433 3.604 -0.654 h 200.044 c 0.466 0.082 0.915 0.188 1.389 0.245 c 11.31 1.553 20.528 10.223 22.718 21.394 c 0.204 1.087 0.36 2.19 0.531 3.277 V 355.766 z" stroke-linecap="round" />
</g>
</svg>