<?xml version="1.0" encoding="UTF-8" standalone="no" ?>
<!DOCTYPE svg PUBLIC "-//W3C//DTD SVG 1.1//EN" "http://www.w3.org/Graphics/SVG/1.1/DTD/svg11.dtd">
<svg xmlns="http://www.w3.org/2000/svg" xmlns:xlink="http://www.w3.org/1999/xlink" version="1.1" width="400" height="400" viewBox="0 0 400 400" xml:space="preserve">
<desc>Created with Fabric.js 3.6.2</desc>
<defs>
</defs>
<g transform="matrix(0.39 0 0 0.39 200 200)" id="Layer_1"  >
<path style="stroke: none; stroke-width: 1; stroke-dasharray: none; stroke-linecap: butt; stroke-dashoffset: 0; stroke-linejoin: miter; stroke-miterlimit: 4; fill: rgb(0,0,0); fill-rule: nonzero; opacity: 1;"  transform=" translate(-256, -256)" d="M 437.013 74.963 C 390.661 28.765 326.734 0 255.998 0 C 185.261 0 121.335 28.765 74.983 74.963 C 28.636 121.305 0 185.355 0 256.073 c 0 70.566 28.636 134.625 74.983 180.959 C 121.335 483.232 185.261 512 255.998 512 c 70.736 0 134.663 -28.768 181.015 -74.968 C 483.359 390.698 512 326.64 512 256.073 C 512 185.355 483.359 121.305 437.013 74.963 z" stroke-linecap="round" />
</g>
<g transform="matrix(0.39 0 0 0.39 199.97 200)" id="Layer_1"  >
<path style="stroke: none; stroke-width: 1; stroke-dasharray: none; stroke-linecap: butt; stroke-dashoffset: 0; stroke-linejoin: miter; stroke-miterlimit: 4; fill: rgb(255,255,255); fill-rule: evenodd; opacity: 1;"  transform=" translate(-255.92, -256)" d="M 384.138 201.512 c 0 0 -2.686 -18.847 -10.491 -27.066 c -9.915 -10.769 -21.118 -10.912 -26.076 -11.624 c -36.572 -2.69 -91.426 -2.69 -91.426 -2.69 h -0.293 c 0 0 -54.708 0 -91.29 2.69 c -5.235 0.712 -16.292 0.855 -26.213 11.624 c -7.8 8.22 -10.486 27.066 -10.486 27.066 s -2.701 22.107 -2.701 43.929 v 2.837 v 17.994 c 0 22.107 2.701 43.935 2.701 43.935 s 2.687 18.847 10.486 27.207 c 9.921 10.91 22.967 10.488 28.919 11.619 c 20.836 2.127 88.877 2.837 88.877 2.837 s 54.854 -0.283 91.426 -2.837 c 4.958 -0.709 16.161 -0.709 26.076 -11.619 c 7.806 -8.36 10.491 -27.207 10.491 -27.207 s 2.55 -21.827 2.55 -43.935 v -16.861 v -3.97 C 386.688 223.619 384.138 201.512 384.138 201.512 L 384.138 201.512 z M 299.659 253.098 l -70.737 38.115 v -58.668 V 214.69 l 32.039 17.433 L 299.659 253.098 z" stroke-linecap="round" />
</g>
</svg>