<?xml version="1.0" standalone="no"?>
<!DOCTYPE svg PUBLIC "-//W3C//DTD SVG 20010904//EN"
 "http://www.w3.org/TR/2001/REC-SVG-20010904/DTD/svg10.dtd">
<svg version="1.0" xmlns="http://www.w3.org/2000/svg"
 width="700.000000pt" height="700.000000pt" viewBox="0 0 700.000000 700.000000"
 preserveAspectRatio="xMidYMid meet">
<metadata>
Created by potrace 1.16, written by Peter Selinger 2001-2019
</metadata>
<g transform="translate(0.000000,700.000000) scale(0.100000,-0.100000)"
fill="#000000" stroke="none">
<path d="M3205 6990 c-3 -5 -34 -10 -68 -11 -34 0 -87 -5 -117 -9 -120 -19
-228 -39 -290 -54 -36 -8 -87 -20 -115 -26 -27 -6 -57 -15 -66 -20 -9 -5 -34
-12 -55 -16 -22 -3 -43 -10 -49 -14 -5 -5 -27 -11 -48 -15 -20 -4 -40 -11 -43
-16 -3 -5 -15 -9 -27 -9 -13 0 -31 -6 -42 -14 -11 -7 -33 -16 -50 -20 -26 -7
-58 -20 -170 -71 -93 -42 -130 -61 -133 -67 -2 -5 -9 -8 -15 -8 -13 0 -55 -21
-117 -58 -19 -12 -48 -28 -65 -35 -16 -8 -54 -31 -84 -51 -29 -20 -55 -36 -58
-36 -2 0 -31 -20 -63 -45 -32 -25 -61 -45 -64 -45 -9 0 -138 -99 -225 -174
-108 -91 -326 -309 -417 -417 -75 -87 -174 -216 -174 -225 0 -3 -19 -31 -43
-62 -46 -61 -122 -179 -138 -215 -5 -12 -23 -44 -39 -72 -26 -44 -84 -161
-125 -250 -48 -104 -64 -144 -71 -170 -4 -17 -13 -39 -20 -50 -8 -11 -14 -29
-14 -42 0 -12 -4 -24 -9 -27 -5 -3 -12 -23 -16 -43 -4 -21 -10 -42 -15 -48 -4
-5 -11 -27 -14 -49 -4 -21 -11 -46 -16 -55 -5 -9 -14 -38 -20 -66 -30 -133
-37 -161 -43 -175 -3 -8 -11 -53 -17 -100 -6 -47 -15 -110 -19 -140 -5 -30
-10 -81 -10 -112 -1 -31 -5 -60 -11 -63 -14 -8 -14 -582 0 -590 5 -3 10 -32
11 -63 0 -31 5 -82 9 -112 36 -228 60 -347 72 -365 3 -5 9 -32 13 -60 4 -27
11 -54 15 -60 5 -5 11 -28 15 -50 4 -22 11 -44 15 -50 5 -5 11 -27 15 -48 4
-20 11 -40 16 -43 5 -3 9 -12 9 -21 0 -15 19 -65 46 -116 8 -16 14 -33 14 -39
0 -20 142 -314 205 -423 19 -33 42 -73 51 -90 15 -27 68 -101 94 -132 5 -7 10
-15 10 -18 0 -7 68 -105 94 -135 12 -14 29 -36 38 -50 8 -14 45 -57 82 -96 36
-40 66 -76 66 -80 0 -10 206 -211 301 -295 69 -60 304 -239 314 -239 3 0 31
-19 61 -41 56 -43 94 -67 154 -97 19 -9 40 -22 46 -27 23 -22 372 -189 417
-200 15 -4 30 -11 33 -16 3 -5 13 -9 22 -9 9 0 30 -7 45 -15 15 -8 43 -17 63
-21 19 -3 37 -10 39 -15 3 -4 26 -11 50 -15 25 -3 48 -10 51 -15 2 -5 27 -11
55 -15 27 -4 52 -10 54 -15 3 -4 30 -11 60 -14 31 -4 58 -11 60 -15 3 -5 31
-11 63 -15 31 -3 66 -10 77 -15 11 -5 65 -14 120 -20 55 -6 132 -15 170 -20
93 -12 590 -11 685 0 217 27 406 57 435 70 11 5 40 12 65 16 25 3 50 10 55 14
6 4 30 11 55 15 25 4 50 11 55 15 6 4 27 10 47 14 20 4 50 13 65 21 15 8 36
15 46 15 9 0 25 4 35 10 32 18 111 50 122 50 7 0 24 6 38 14 31 17 205 99 242
115 14 6 48 25 75 41 28 16 59 34 71 39 34 15 129 75 132 83 2 4 8 8 14 8 5 0
36 20 68 45 32 25 61 45 64 45 12 0 146 105 261 202 63 55 307 298 363 363 81
94 124 148 147 184 12 20 30 42 39 50 9 7 16 18 16 23 0 5 20 36 45 68 25 32
45 63 45 68 0 6 4 12 8 14 8 3 68 98 83 132 5 12 23 44 39 71 16 28 35 61 41
75 16 37 98 211 115 242 8 14 14 31 14 38 0 11 32 90 50 122 6 10 10 26 10 35
0 10 7 31 15 46 8 15 17 45 21 65 4 20 10 42 14 47 4 6 11 30 15 55 4 25 11
50 15 55 4 6 11 30 14 55 4 25 11 54 16 65 10 22 24 99 44 245 8 52 17 106 21
120 13 46 18 649 6 745 -7 50 -16 133 -22 185 -6 52 -14 104 -19 115 -5 11
-12 46 -15 77 -4 32 -10 60 -15 63 -4 2 -11 29 -15 60 -3 30 -10 57 -14 60 -5
2 -11 27 -15 54 -4 28 -10 53 -15 55 -5 3 -11 24 -15 46 -3 23 -10 49 -15 58
-5 9 -19 46 -31 82 -12 36 -28 77 -36 92 -8 14 -14 31 -14 38 0 19 -175 383
-195 404 -5 6 -18 27 -27 46 -30 60 -54 98 -97 154 -22 30 -41 58 -41 61 0 10
-179 245 -239 314 -84 95 -285 301 -295 301 -4 0 -40 30 -80 66 -39 37 -82 74
-96 82 -14 9 -36 26 -50 38 -30 26 -128 94 -135 94 -3 0 -11 5 -18 10 -31 26
-105 79 -132 94 -16 9 -57 32 -90 51 -113 66 -433 219 -482 231 -14 4 -38 13
-52 20 -14 8 -34 14 -43 14 -9 0 -19 4 -22 9 -3 5 -23 12 -43 16 -21 4 -42 10
-48 15 -5 4 -28 11 -50 15 -22 4 -44 10 -50 15 -5 4 -32 11 -60 15 -27 4 -54
10 -60 13 -12 8 -105 29 -190 43 -33 5 -80 14 -105 20 -24 5 -89 13 -143 16
-54 3 -100 10 -103 15 -8 12 -581 10 -589 -2z m1565 -1212 c259 -66 460 -178
641 -358 213 -213 339 -462 385 -765 20 -135 20 -2166 -1 -2310 -45 -318 -212
-624 -448 -825 -202 -172 -431 -276 -690 -314 -147 -22 -2171 -23 -2312 -2
-160 24 -271 59 -409 127 -331 165 -585 465 -691 817 -57 192 -56 177 -53
1397 l4 1120 26 105 c65 263 196 492 384 669 152 144 354 262 542 317 185 53
160 52 1382 50 l1135 -2 105 -26z"/>
<path d="M2341 5435 c-292 -64 -518 -226 -664 -478 -51 -88 -100 -225 -117
-328 -14 -88 -14 -2170 1 -2259 15 -100 71 -251 125 -343 64 -107 230 -275
329 -332 98 -57 179 -91 276 -118 l84 -22 1125 0 1125 0 85 23 c349 95 616
361 712 712 l23 85 0 1125 0 1125 -22 84 c-70 260 -226 468 -456 607 -91 54
-232 106 -337 123 -43 7 -433 11 -1145 10 -882 0 -1092 -3 -1144 -14z m2585
-352 c95 -32 174 -144 174 -248 0 -189 -203 -322 -375 -246 -222 98 -210 414
18 498 47 17 126 15 183 -4z m-1221 -354 c166 -26 388 -120 530 -226 100 -74
236 -217 300 -314 102 -155 172 -341 196 -516 16 -121 6 -355 -20 -458 -114
-457 -454 -802 -911 -921 -118 -31 -340 -43 -473 -25 -253 34 -488 148 -680
330 -181 172 -295 367 -357 609 -113 447 51 949 407 1242 293 242 634 336
1008 279z"/>
<path d="M3376 4379 c-100 -13 -239 -63 -331 -117 -107 -63 -244 -200 -307
-307 -222 -377 -137 -862 199 -1140 84 -69 242 -147 352 -174 119 -29 305 -29
422 0 321 80 568 327 648 648 29 117 29 303 0 422 -44 181 -154 357 -297 475
-81 67 -239 147 -345 173 -94 24 -247 33 -341 20z"/>
</g>
</svg>
