<?xml version="1.0" standalone="no"?>
<!DOCTYPE svg PUBLIC "-//W3C//DTD SVG 20010904//EN"
 "http://www.w3.org/TR/2001/REC-SVG-20010904/DTD/svg10.dtd">
<svg version="1.0" xmlns="http://www.w3.org/2000/svg"
 width="348.000000pt" height="348.000000pt" viewBox="0 0 348.000000 348.000000"
 preserveAspectRatio="xMidYMid meet">
<metadata>
Created by potrace 1.16, written by Peter Selinger 2001-2019
</metadata>
<g transform="translate(0.000000,348.000000) scale(0.100000,-0.100000)"
fill="#000000" stroke="none">
<path d="M1487 3385 c-308 -50 -620 -195 -842 -392 -130 -115 -289 -328 -370
-498 -56 -116 -107 -268 -136 -405 -33 -150 -33 -447 -1 -597 66 -304 213
-597 402 -797 143 -150 282 -252 475 -346 244 -120 437 -164 705 -164 276 0
466 45 725 174 157 78 283 164 387 266 236 232 385 500 464 840 26 109 28 135
28 324 0 174 -3 220 -22 306 -59 274 -194 547 -380 767 -202 239 -540 432
-889 508 -130 27 -418 35 -546 14z m1002 -981 c12 -16 21 -41 21 -62 0 -48
-269 -1310 -286 -1344 -16 -31 -51 -44 -91 -33 -15 3 -118 74 -229 156 -111
82 -205 149 -209 149 -5 0 -56 -47 -115 -104 -97 -94 -142 -127 -157 -112 -10
10 27 411 40 422 7 6 174 159 372 339 198 181 363 333 367 339 12 18 -15 25
-41 11 -14 -7 -231 -142 -481 -300 l-455 -287 -185 57 c-240 72 -267 83 -275
102 -15 41 26 66 256 155 123 48 485 188 804 311 319 124 594 226 612 226 23
1 37 -6 52 -25z"/>
</g>
</svg>
