<?xml version="1.0" standalone="no"?>
<!DOCTYPE svg PUBLIC "-//W3C//DTD SVG 20010904//EN"
        "http://www.w3.org/TR/2001/REC-SVG-20010904/DTD/svg10.dtd">
<svg version="1.0" xmlns="http://www.w3.org/2000/svg"
     width="176.000000pt" height="176.000000pt" viewBox="0 0 176.000000 176.000000"
     preserveAspectRatio="xMidYMid meet">
    <g transform="translate(0.000000,176.000000) scale(0.100000,-0.100000)"
       fill="#000000" stroke="none">
        <path d="M717 1734 c-183 -33 -334 -119 -561 -318 l-68 -60 6 -60 c31 -281
148 -627 278 -819 82 -122 270 -295 440 -406 l68 -43 42 25 c89 52 296 213
359 279 149 154 254 362 324 639 24 94 65 329 65 374 0 23 -165 169 -268 238
-216 145 -442 195 -685 151z m363 -65 c140 -35 273 -118 434 -270 l79 -74 -12
-90 c-47 -361 -145 -632 -295 -822 -73 -91 -153 -161 -301 -263 l-101 -68 -83
56 c-301 203 -455 429 -551 811 -16 64 -36 161 -45 216 -8 55 -17 112 -20 126
-4 24 10 39 121 135 167 146 246 198 347 229 152 47 278 51 427 14z"/>
        <path d="M876 1625 l-17 -54 -72 -3 -72 -3 50 -35 c27 -19 53 -38 57 -41 5 -3
-1 -32 -12 -64 -11 -32 -19 -60 -17 -61 2 -2 27 13 56 32 l53 36 51 -36 c28
-19 53 -33 55 -31 2 2 -5 29 -14 60 -21 64 -27 51 57 117 l34 27 -71 1 -70 0
-18 55 c-9 30 -20 55 -25 55 -4 0 -15 -25 -25 -55z"/>
        <path d="M1162 1432 c-9 -27 -16 -32 -44 -32 l-33 -1 25 -21 c14 -11 24 -23
24 -27 -1 -3 -4 -19 -8 -35 l-7 -28 28 20 28 20 28 -20 28 -20 -6 34 c-6 30
-3 38 20 57 l28 21 -37 0 c-31 0 -38 4 -49 32 l-13 33 -12 -33z"/>
        <path d="M596 1415 c-5 -21 -12 -25 -44 -25 l-37 -1 29 -23 c24 -20 27 -28 21
-57 l-7 -33 26 18 c25 16 29 16 51 2 33 -22 35 -21 25 16 -8 25 -6 34 8 44 9
7 20 14 25 14 4 0 7 5 7 10 0 6 -15 10 -34 10 -28 0 -35 4 -40 25 -4 14 -10
25 -15 25 -5 0 -12 -11 -15 -25z"/>
        <path d="M867 1286 c-21 -26 -60 -56 -92 -71 -49 -24 -64 -27 -123 -23 -38 3
-94 16 -129 31 -35 14 -63 24 -63 22 0 -4 98 -177 104 -182 1 -1 54 9 117 24
92 22 140 27 249 27 120 1 146 -2 233 -28 56 -16 102 -25 106 -20 10 11 91
184 87 184 -2 0 -30 -12 -62 -27 -49 -23 -72 -28 -139 -28 -94 0 -137 19 -207
89 l-44 45 -37 -43z"/>
        <path d="M694 1036 c-132 -25 -200 -54 -266 -114 -53 -48 -78 -102 -78 -175 0
-101 64 -193 165 -238 37 -16 44 -25 53 -62 13 -52 59 -98 127 -129 70 -31
240 -38 331 -13 62 17 144 65 144 85 0 5 -16 14 -36 19 -33 9 -40 7 -73 -18
-53 -42 -101 -54 -195 -49 -63 3 -92 10 -125 29 -39 22 -82 72 -71 83 3 2 32
0 65 -6 33 -5 125 -8 205 -5 201 7 318 42 420 126 l34 29 -40 11 c-92 25 -97
24 -138 -8 -115 -91 -354 -116 -535 -55 -23 8 36 61 87 79 53 18 174 20 223 4
19 -7 48 -22 64 -34 26 -18 36 -20 75 -12 l44 9 -36 33 c-49 45 -92 57 -229
62 -136 6 -207 -9 -277 -59 l-43 -30 -26 23 c-72 66 -68 196 8 266 127 116
509 121 629 8 24 -22 27 -23 95 -11 51 9 69 16 67 27 -7 33 -88 79 -193 110
-96 27 -366 36 -475 15z"/>
    </g>
</svg>
