<?xml version="1.0" standalone="no"?>
<!DOCTYPE svg PUBLIC "-//W3C//DTD SVG 20010904//EN"
 "http://www.w3.org/TR/2001/REC-SVG-20010904/DTD/svg10.dtd">
<svg version="1.0" xmlns="http://www.w3.org/2000/svg"
 width="342.000000pt" height="171.000000pt" viewBox="0 0 342.000000 171.000000"
 preserveAspectRatio="xMidYMid meet">
<metadata>
Created by potrace 1.16, written by Peter Selinger 2001-2019
</metadata>
<g transform="translate(0.000000,171.000000) scale(0.100000,-0.100000)"
fill="#000000" stroke="none">
<path d="M1550 1575 c-131 -26 -258 -93 -359 -189 -65 -62 -137 -163 -161
-226 -7 -19 -17 -40 -22 -46 -16 -22 -48 -199 -48 -270 0 -196 105 -432 244
-551 68 -57 81 -66 150 -103 123 -66 201 -85 356 -85 155 0 233 19 356 85 69
37 82 46 150 103 139 119 244 355 244 551 0 71 -32 248 -48 270 -5 6 -15 27
-22 46 -58 150 -231 313 -405 382 -117 46 -300 60 -435 33z m219 -480 c13 -13
16 -39 16 -135 0 -148 10 -165 61 -105 20 22 56 80 80 130 25 49 51 93 57 97
7 4 58 8 114 8 125 0 142 -10 117 -68 -8 -20 -38 -68 -66 -107 -74 -101 -98
-137 -98 -147 0 -5 38 -48 83 -97 46 -48 86 -97 89 -109 11 -41 -13 -55 -100
-60 -125 -7 -145 0 -217 74 -85 86 -101 85 -120 -11 l-10 -50 -89 -3 c-81 -3
-94 0 -153 27 -114 54 -218 183 -330 410 -53 108 -55 115 -38 127 20 15 181
20 201 6 6 -4 32 -48 58 -98 26 -50 62 -109 81 -130 34 -38 35 -38 50 -20 21
28 21 173 -1 204 -8 12 -22 22 -30 22 -17 0 -19 26 -2 36 44 28 219 27 247 -1z"/>
</g>
</svg>
