<?xml version="1.0" standalone="no"?>
<!DOCTYPE svg PUBLIC "-//W3C//DTD SVG 20010904//EN"
 "http://www.w3.org/TR/2001/REC-SVG-20010904/DTD/svg10.dtd">
<svg version="1.0" xmlns="http://www.w3.org/2000/svg"
 width="360.000000pt" height="360.000000pt" viewBox="0 0 360.000000 360.000000"
 preserveAspectRatio="xMidYMid meet">
<metadata>
Created by potrace 1.16, written by Peter Selinger 2001-2019
</metadata>
<g transform="translate(0.000000,360.000000) scale(0.100000,-0.100000)"
fill="#000000" stroke="none">
<path d="M1585 3104 c-493 -88 -891 -431 -1043 -901 -45 -138 -57 -221 -57
-403 0 -188 12 -270 62 -420 147 -437 520 -770 978 -871 127 -29 343 -35 465
-15 282 46 517 161 717 350 422 399 533 1029 273 1547 -51 100 -79 144 -146
229 -205 258 -495 428 -823 484 -115 20 -316 20 -426 0z m728 -744 c198 -17
246 -77 267 -330 19 -225 7 -526 -25 -637 -19 -65 -62 -116 -118 -138 -59 -24
-242 -34 -622 -34 -336 -1 -573 11 -640 30 -57 16 -110 73 -129 140 -47 159
-47 651 -2 803 28 92 84 146 170 161 116 22 866 25 1099 5z"/>
<path d="M1640 1813 l0 -225 63 35 c34 19 126 69 205 112 79 42 142 79 140 80
-2 2 -94 52 -205 113 l-203 110 0 -225z"/>
</g>
</svg>
